<svg xmlns="http://www.w3.org/2000/svg" viewBox="0 0 800 500" role="img" aria-label="Red lizard on a ghostly shoulder">
<defs><linearGradient id="bg" x1="0" x2="1" y1="0" y2="1"><stop stop-color="#172533"/><stop offset="1" stop-color="#3a1e2a"/></linearGradient><filter id="glow"><feGaussianBlur stdDeviation="18"/></filter></defs>
<rect width="800" height="500" fill="url(#bg)"/><circle cx="620" cy="125" r="110" fill="#e94f42" opacity=".18" filter="url(#glow)"/>
<path d="M120 455 C210 330 315 270 470 278 C560 282 625 350 710 455Z" fill="#cbd7d5" opacity=".22"/><path d="M310 360 C360 310 420 290 500 305" fill="none" stroke="#f7e9d5" stroke-width="16" opacity=".35"/>
<path d="M260 285 C315 245 395 222 480 245 C535 260 575 302 585 342 C532 330 493 320 447 322 C385 324 330 314 260 285Z" fill="#e53e3d" stroke="#ff9a68" stroke-width="8"/>
<path d="M260 285 L215 250 L245 294 L195 315 L267 314 M480 245 L526 214 L507 260 L565 270" fill="#e53e3d" stroke="#ff9a68" stroke-width="7" stroke-linejoin="round"/>
<circle cx="300" cy="272" r="10" fill="#fff4d6"/><circle cx="302" cy="273" r="4" fill="#172533"/><path d="M330 300 Q410 343 505 298" fill="none" stroke="#641f35" stroke-width="8"/><path d="M350 245 Q390 200 430 240" fill="none" stroke="#ffb07f" stroke-width="6" opacity=".8"/>
<g fill="#f7e9d5" opacity=".65"><circle cx="115" cy="110" r="4"/><circle cx="170" cy="180" r="3"/><circle cx="700" cy="300" r="5"/><circle cx="650" cy="390" r="3"/></g></svg>
